# xmcd CD database file
#
# Track frame offsets:
#	150
#	29534
#	58250
#	95384
#	125784
#	155642
#
# Disc length: 2508 seconds
#
# Revision: 3
# Processed by: cddbd v1.5.2PL0 Copyright (c) Steve Scherf et al.
# Submitted via: CDex 1.60beta1-cs1
#
DISCID=5309ca06
DTITLE=Donald Byrd - Royal Flush
DYEAR=1961
DGENRE=Jazz
TTITLE0=Hush
TTITLE1=I'm a fool to want you
TTITLE2=Jorgie's
TTITLE3=Shangri-la
TTITLE4=6m's
TTITLE5=Requiem
EXTD=YEAR: 1961
EXTT0=
EXTT1=
EXTT2=
EXTT3=
EXTT4=
EXTT5=
PLAYORDER=
